<mxfile modified="2023-02-01T17:45:43.952Z" host="app.diagrams.net" agent="5.0 (Windows NT 10.0; Win64; x64) AppleWebKit/537.36 (KHTML, like Gecko) Chrome/109.0.0.0 Safari/537.36" etag="V_CTP3Yol7qw8coH0dvh" version="20.8.14" type="github">
  <diagram id="Ht1M8jgEwFfnCIfOTk4-" name="Page-1">
    <mxGraphModel dx="1658" dy="1096" grid="1" gridSize="10" guides="1" tooltips="1" connect="1" arrows="1" fold="1" page="1" pageScale="1" pageWidth="1169" pageHeight="827" math="0" shadow="0">
      <root>
        <mxCell id="0" />
        <mxCell id="1" parent="0" />
        <mxCell id="UEzPUAAOIrF-is8g5C7q-121" value="Amazon&lt;br&gt;CloudWatch&lt;br&gt;" style="outlineConnect=0;fontColor=#232F3E;gradientColor=#F34482;gradientDirection=north;fillColor=#BC1356;strokeColor=#ffffff;dashed=0;verticalLabelPosition=bottom;verticalAlign=top;align=center;html=1;fontSize=12;fontStyle=0;aspect=fixed;shape=mxgraph.aws4.resourceIcon;resIcon=mxgraph.aws4.cloudwatch;labelBackgroundColor=#ffffff;" parent="1" vertex="1">
          <mxGeometry x="460.0000000000002" y="260" width="78" height="78" as="geometry" />
        </mxCell>
        <mxCell id="UEzPUAAOIrF-is8g5C7q-122" value="&lt;font face=&quot;Verdana&quot; style=&quot;font-size: 11px;&quot;&gt;IAM Roles For Lambda &amp;amp; Step Function&lt;/font&gt;" style="outlineConnect=0;fontColor=#232F3E;gradientColor=none;fillColor=#C7131F;strokeColor=none;dashed=0;verticalLabelPosition=bottom;verticalAlign=top;align=center;html=1;fontSize=12;fontStyle=0;aspect=fixed;pointerEvents=1;shape=mxgraph.aws4.role;labelBackgroundColor=#ffffff;" parent="1" vertex="1">
          <mxGeometry x="-299.9999999999998" y="-242" width="78" height="44" as="geometry" />
        </mxCell>
        <mxCell id="chf6z7MR7famHuNtZKf4-3" value="AWS Step Functions workflow" style="points=[[0,0],[0.25,0],[0.5,0],[0.75,0],[1,0],[1,0.25],[1,0.5],[1,0.75],[1,1],[0.75,1],[0.5,1],[0.25,1],[0,1],[0,0.75],[0,0.5],[0,0.25]];outlineConnect=0;gradientColor=none;html=1;whiteSpace=wrap;fontSize=12;fontStyle=0;container=1;pointerEvents=0;collapsible=0;recursiveResize=0;shape=mxgraph.aws4.group;grIcon=mxgraph.aws4.group_aws_step_functions_workflow;strokeColor=#CD2264;fillColor=none;verticalAlign=top;align=left;spacingLeft=30;fontColor=#CD2264;dashed=0;" vertex="1" parent="1">
          <mxGeometry x="-120" y="-510" width="1190" height="750" as="geometry" />
        </mxCell>
        <mxCell id="chf6z7MR7famHuNtZKf4-16" value="" style="edgeStyle=orthogonalEdgeStyle;rounded=0;orthogonalLoop=1;jettySize=auto;html=1;fontFamily=Verdana;fontSize=12;" edge="1" parent="chf6z7MR7famHuNtZKf4-3" source="chf6z7MR7famHuNtZKf4-1" target="UEzPUAAOIrF-is8g5C7q-115">
          <mxGeometry relative="1" as="geometry" />
        </mxCell>
        <mxCell id="chf6z7MR7famHuNtZKf4-1" value="&lt;font style=&quot;font-size: 11px;&quot;&gt;Redshift Consumer Global/US&lt;/font&gt;" style="sketch=0;points=[[0,0,0],[0.25,0,0],[0.5,0,0],[0.75,0,0],[1,0,0],[0,1,0],[0.25,1,0],[0.5,1,0],[0.75,1,0],[1,1,0],[0,0.25,0],[0,0.5,0],[0,0.75,0],[1,0.25,0],[1,0.5,0],[1,0.75,0]];outlineConnect=0;fontColor=#232F3E;gradientColor=#4D72F3;gradientDirection=north;fillColor=#3334B9;strokeColor=#ffffff;dashed=0;verticalLabelPosition=top;verticalAlign=bottom;align=center;fontSize=12;fontStyle=0;aspect=fixed;shape=mxgraph.aws4.resourceIcon;resIcon=mxgraph.aws4.redshift;whiteSpace=wrap;html=1;labelBorderColor=none;labelBackgroundColor=none;fontFamily=Verdana;horizontal=1;labelPosition=center;" vertex="1" parent="chf6z7MR7famHuNtZKf4-3">
          <mxGeometry x="44" y="80" width="70" height="70" as="geometry" />
        </mxCell>
        <mxCell id="chf6z7MR7famHuNtZKf4-18" value="" style="edgeStyle=orthogonalEdgeStyle;rounded=0;orthogonalLoop=1;jettySize=auto;html=1;fontFamily=Verdana;fontSize=12;" edge="1" parent="chf6z7MR7famHuNtZKf4-3" source="chf6z7MR7famHuNtZKf4-10">
          <mxGeometry relative="1" as="geometry">
            <mxPoint x="81" y="526" as="targetPoint" />
          </mxGeometry>
        </mxCell>
        <mxCell id="chf6z7MR7famHuNtZKf4-10" value="&lt;p style=&quot;margin-top: 0pt; margin-bottom: 0pt; margin-left: 0in; direction: ltr; unicode-bidi: embed; word-break: normal;&quot;&gt;&lt;font face=&quot;Verdana&quot;&gt;Check Statement Status&lt;/font&gt;&lt;/p&gt;&lt;p style=&quot;margin-top: 0pt; margin-bottom: 0pt; margin-left: 0in; direction: ltr; unicode-bidi: embed; word-break: normal;&quot;&gt;&lt;span style=&quot;color: black; font-size: 8pt;&quot;&gt;&lt;font face=&quot;Verdana&quot;&gt;Function Names&lt;/font&gt;&lt;/span&gt;&lt;/p&gt;" style="outlineConnect=0;fontColor=#232F3E;gradientColor=none;fillColor=#D05C17;strokeColor=none;dashed=0;verticalLabelPosition=bottom;verticalAlign=top;align=center;html=1;fontSize=12;fontStyle=0;aspect=fixed;pointerEvents=1;shape=mxgraph.aws4.lambda_function;labelBackgroundColor=#ffffff;" vertex="1" parent="chf6z7MR7famHuNtZKf4-3">
          <mxGeometry x="42" y="368" width="78" height="78" as="geometry" />
        </mxCell>
        <mxCell id="chf6z7MR7famHuNtZKf4-15" value="" style="edgeStyle=orthogonalEdgeStyle;rounded=0;orthogonalLoop=1;jettySize=auto;html=1;fontFamily=Verdana;fontSize=12;" edge="1" parent="chf6z7MR7famHuNtZKf4-3" source="chf6z7MR7famHuNtZKf4-12" target="chf6z7MR7famHuNtZKf4-10">
          <mxGeometry relative="1" as="geometry">
            <Array as="points">
              <mxPoint x="79" y="340" />
              <mxPoint x="79" y="340" />
            </Array>
          </mxGeometry>
        </mxCell>
        <mxCell id="chf6z7MR7famHuNtZKf4-12" value="Read Function Names" style="text;strokeColor=none;align=center;fillColor=none;verticalAlign=middle;rounded=0;fontSize=12;fontFamily=Verdana;html=1;" vertex="1" parent="chf6z7MR7famHuNtZKf4-3">
          <mxGeometry x="9" y="298" width="140" height="22" as="geometry" />
        </mxCell>
        <mxCell id="UEzPUAAOIrF-is8g5C7q-115" value="Lambda&lt;br&gt;function" style="outlineConnect=0;fontColor=#232F3E;gradientColor=none;fillColor=#D05C17;strokeColor=none;dashed=0;verticalLabelPosition=top;verticalAlign=bottom;align=center;html=1;fontSize=12;fontStyle=0;aspect=fixed;pointerEvents=1;shape=mxgraph.aws4.lambda_function;labelBackgroundColor=#ffffff;labelPosition=center;spacingTop=3;spacingBottom=6;" parent="chf6z7MR7famHuNtZKf4-3" vertex="1">
          <mxGeometry x="40" y="220" width="78" height="78" as="geometry" />
        </mxCell>
        <mxCell id="chf6z7MR7famHuNtZKf4-21" value="" style="edgeStyle=orthogonalEdgeStyle;rounded=0;orthogonalLoop=1;jettySize=auto;html=1;fontFamily=Verdana;fontSize=12;fillColor=#f8cecc;strokeColor=#b85450;" edge="1" parent="chf6z7MR7famHuNtZKf4-3" source="chf6z7MR7famHuNtZKf4-19" target="chf6z7MR7famHuNtZKf4-20">
          <mxGeometry relative="1" as="geometry" />
        </mxCell>
        <mxCell id="chf6z7MR7famHuNtZKf4-24" value="" style="edgeStyle=orthogonalEdgeStyle;rounded=0;orthogonalLoop=1;jettySize=auto;html=1;fontFamily=Verdana;fontSize=12;" edge="1" parent="chf6z7MR7famHuNtZKf4-3" source="chf6z7MR7famHuNtZKf4-19" target="chf6z7MR7famHuNtZKf4-23">
          <mxGeometry relative="1" as="geometry" />
        </mxCell>
        <mxCell id="chf6z7MR7famHuNtZKf4-19" value="&lt;b&gt;SUCCESS / FAIL&lt;/b&gt;" style="ellipse;whiteSpace=wrap;html=1;labelBackgroundColor=none;labelBorderColor=none;fontFamily=Verdana;fontSize=12;fillColor=#dae8fc;strokeColor=#6c8ebf;" vertex="1" parent="chf6z7MR7famHuNtZKf4-3">
          <mxGeometry x="21" y="530" width="120" height="80" as="geometry" />
        </mxCell>
        <mxCell id="chf6z7MR7famHuNtZKf4-20" value="Send Failure Notification with query" style="rounded=1;whiteSpace=wrap;html=1;labelBackgroundColor=none;labelBorderColor=none;fontFamily=Verdana;fontSize=12;" vertex="1" parent="chf6z7MR7famHuNtZKf4-3">
          <mxGeometry x="21" y="660" width="120" height="60" as="geometry" />
        </mxCell>
        <mxCell id="chf6z7MR7famHuNtZKf4-23" value="Lambda&lt;br&gt;function" style="outlineConnect=0;fontColor=#232F3E;gradientColor=none;fillColor=#D05C17;strokeColor=none;dashed=0;verticalLabelPosition=top;verticalAlign=bottom;align=center;html=1;fontSize=12;fontStyle=0;aspect=fixed;pointerEvents=1;shape=mxgraph.aws4.lambda_function;labelBackgroundColor=#ffffff;labelPosition=center;spacingTop=3;spacingBottom=6;" vertex="1" parent="chf6z7MR7famHuNtZKf4-3">
          <mxGeometry x="210" y="530" width="78" height="78" as="geometry" />
        </mxCell>
        <mxCell id="chf6z7MR7famHuNtZKf4-6" value="&lt;h1&gt;&lt;b&gt;Function/Procedure Executor Work Flow for Redshift&lt;/b&gt;&lt;/h1&gt;&lt;div&gt;&lt;b&gt;&lt;br&gt;&lt;/b&gt;&lt;/div&gt;" style="text;strokeColor=none;align=center;fillColor=none;html=1;verticalAlign=middle;whiteSpace=wrap;rounded=0;" vertex="1" parent="1">
          <mxGeometry x="291.5" y="-570" width="355" height="60" as="geometry" />
        </mxCell>
      </root>
    </mxGraphModel>
  </diagram>
</mxfile>
